STARTFONT 2.1
FONT -sun-helmetcondensed-medium-i-semicondensed--17-170-75-75-p-78-adobe-fontspecific
SIZE 17 75 75
FONTBOUNDINGBOX 17 20 -2 -4

STARTPROPERTIES 28
FOUNDRY "sun"
FAMILY_NAME "helmetcondensed"
WEIGHT_NAME "medium"
SLANT "i"
SETWIDTH_NAME "semicondensed"
ADD_STYLE_NAME ""
PIXEL_SIZE 18
POINT_SIZE 170
RESOLUTION_X 75
RESOLUTION_Y 75
SPACING "p"
AVERAGE_WIDTH 78
CHARSET_REGISTRY "adobe"
CHARSET_ENCODING "fontspecific"
COPYRIGHT "© 1999 Sun Microsystems, Inc."
RAW_PIXELSIZE 1000
RAW_POINTSIZE 964
RAW_ASCENT 911
RAW_DESCENT 217
RAW_AVERAGE_WIDTH 4390
FACE_NAME "HelmetCondensedItalicedB5"
_XMBDFED_INFO "Edited with xmbdfed 2.4."
WEIGHT 10
X_HEIGHT -1
QUAD_WIDTH 9
DEFAULT_CHAR 4
FONT_DESCENT 4
FONT_ASCENT 16
ENDPROPERTIES

CHARS 210

STARTCHAR char32
ENCODING 32
SWIDTH 30 0
DWIDTH 6 0
BBX 0 0 0 0
BITMAP
ENDCHAR

STARTCHAR char33
ENCODING 33
SWIDTH 15 0
DWIDTH 3 0
BBX 4 13 0 0
BITMAP
10
10
10
20
20
20
20
20
40
40
00
00
C0
ENDCHAR

STARTCHAR char34
ENCODING 34
SWIDTH 25 0
DWIDTH 5 0
BBX 5 3 1 9
BITMAP
50
50
50
ENDCHAR

STARTCHAR char35
ENCODING 35
SWIDTH 50 0
DWIDTH 10 0
BBX 9 13 0 0
BITMAP
1900
1100
1300
1300
7F80
1200
3200
3200
FF00
2600
2600
2400
2400
ENDCHAR

STARTCHAR char36
ENCODING 36
SWIDTH 40 0
DWIDTH 8 0
BBX 7 14 0 -1
BITMAP
08
36
6A
4A
48
28
18
14
12
92
A2
E4
78
20
ENDCHAR

STARTCHAR char37
ENCODING 37
SWIDTH 19 0
DWIDTH 14 0
BBX 11 12 0 0
BITMAP
3880
4880
C900
8900
8A40
8BA0
9720
6A20
0A20
1220
1240
21C0
ENDCHAR

STARTCHAR char38
ENCODING 38
SWIDTH 45 0
DWIDTH 9 0
BBX 8 12 0 0
BITMAP
1C
22
22
24
18
30
48
8D
85
82
C2
7E
ENDCHAR

STARTCHAR char39
ENCODING 39
SWIDTH 15 0
DWIDTH 3 0
BBX 3 4 1 9
BITMAP
20
40
40
40
ENDCHAR

STARTCHAR char40
ENCODING 40
SWIDTH 25 0
DWIDTH 5 0
BBX 5 16 2 -2
BITMAP
08
10
20
20
40
40
80
80
80
80
80
80
80
80
80
40
ENDCHAR

STARTCHAR char41
ENCODING 41
SWIDTH 25 0
DWIDTH 5 0
BBX 6 16 -2 -2
BITMAP
08
08
08
04
04
04
04
04
04
0C
08
08
10
10
20
40
ENDCHAR

STARTCHAR char42
ENCODING 42
SWIDTH 35 0
DWIDTH 7 0
BBX 5 5 2 8
BITMAP
20
A0
78
60
A0
ENDCHAR

STARTCHAR char43
ENCODING 43
SWIDTH 45 0
DWIDTH 9 0
BBX 8 8 0 1
BITMAP
08
08
08
FF
08
08
08
08
ENDCHAR

STARTCHAR char44
ENCODING 44
SWIDTH 15 0
DWIDTH 3 0
BBX 2 3 -1 -2
BITMAP
40
40
80
ENDCHAR

STARTCHAR char45
ENCODING 45
SWIDTH 35 0
DWIDTH 7 0
BBX 5 1 0 5
BITMAP
78
ENDCHAR

STARTCHAR char46
ENCODING 46
SWIDTH 15 0
DWIDTH 3 0
BBX 2 1 -1 0
BITMAP
40
ENDCHAR

STARTCHAR char47
ENCODING 47
SWIDTH 20 0
DWIDTH 4 0
BBX 6 14 -1 -1
BITMAP
04
04
04
08
08
10
10
10
20
20
40
40
40
80
ENDCHAR

STARTCHAR char48
ENCODING 48
SWIDTH 40 0
DWIDTH 8 0
BBX 7 12 0 0
BITMAP
1C
22
62
42
42
C2
C2
82
84
84
C8
70
ENDCHAR

STARTCHAR char49
ENCODING 49
SWIDTH 40 0
DWIDTH 8 0
BBX 4 12 2 0
BITMAP
30
F0
20
20
20
20
40
40
40
40
40
80
ENDCHAR

STARTCHAR char50
ENCODING 50
SWIDTH 40 0
DWIDTH 8 0
BBX 8 12 0 0
BITMAP
1E
23
21
01
02
06
08
10
60
40
80
FC
ENDCHAR

STARTCHAR char51
ENCODING 51
SWIDTH 40 0
DWIDTH 8 0
BBX 7 12 0 0
BITMAP
1C
22
02
02
04
18
04
04
84
84
C4
78
ENDCHAR

STARTCHAR char52
ENCODING 52
SWIDTH 40 0
DWIDTH 8 0
BBX 7 13 0 0
BITMAP
02
02
06
0A
14
14
24
44
84
FE
08
08
08
ENDCHAR

STARTCHAR char53
ENCODING 53
SWIDTH 40 0
DWIDTH 8 0
BBX 8 12 0 0
BITMAP
1F
20
20
20
7C
46
02
02
02
86
C4
78
ENDCHAR

STARTCHAR char54
ENCODING 54
SWIDTH 40 0
DWIDTH 8 0
BBX 8 12 0 0
BITMAP
1C
23
60
40
DC
E6
C2
82
82
86
C4
78
ENDCHAR

STARTCHAR char55
ENCODING 55
SWIDTH 40 0
DWIDTH 8 0
BBX 7 12 1 0
BITMAP
7E
04
0C
08
10
30
20
20
40
40
40
80
ENDCHAR

STARTCHAR char56
ENCODING 56
SWIDTH 40 0
DWIDTH 8 0
BBX 7 12 0 0
BITMAP
1C
22
22
22
24
18
64
84
84
84
C4
78
ENDCHAR

STARTCHAR char57
ENCODING 57
SWIDTH 40 0
DWIDTH 8 0
BBX 7 12 0 0
BITMAP
3C
22
42
42
42
46
26
3A
04
04
88
70
ENDCHAR

STARTCHAR char58
ENCODING 58
SWIDTH 15 0
DWIDTH 3 0
BBX 3 9 0 0
BITMAP
20
00
00
00
00
00
00
00
C0
ENDCHAR

STARTCHAR char59
ENCODING 59
SWIDTH 15 0
DWIDTH 3 0
BBX 3 11 0 -2
BITMAP
20
00
00
00
00
00
00
00
C0
80
80
ENDCHAR

STARTCHAR char60
ENCODING 60
SWIDTH 4 0
DWIDTH 11 0
BBX 9 9 1 0
BITMAP
0180
0700
1800
6000
8000
E000
1800
0700
0180
ENDCHAR

STARTCHAR char61
ENCODING 61
SWIDTH 45 0
DWIDTH 9 0
BBX 9 4 0 3
BITMAP
FF80
0000
0000
FF80
ENDCHAR

STARTCHAR char62
ENCODING 62
SWIDTH 4 0
DWIDTH 11 0
BBX 9 9 1 0
BITMAP
8000
E000
1800
0700
0180
0700
1800
6000
8000
ENDCHAR

STARTCHAR char63
ENCODING 63
SWIDTH 35 0
DWIDTH 7 0
BBX 6 12 1 0
BITMAP
78
84
84
04
08
10
20
40
40
00
00
C0
ENDCHAR

STARTCHAR char64
ENCODING 64
SWIDTH 44 0
DWIDTH 19 0
BBX 12 13 3 0
BITMAP
0F80
30C0
4020
4F50
9990
B090
B090
A190
B320
9DC0
4020
2040
1F80
ENDCHAR

STARTCHAR char65
ENCODING 65
SWIDTH 40 0
DWIDTH 8 0
BBX 8 12 -2 0
BITMAP
02
05
05
05
09
09
11
1F
21
61
41
41
ENDCHAR

STARTCHAR char66
ENCODING 66
SWIDTH 40 0
DWIDTH 8 0
BBX 8 12 0 0
BITMAP
3E
21
21
21
42
7C
46
42
42
82
84
F8
ENDCHAR

STARTCHAR char67
ENCODING 67
SWIDTH 45 0
DWIDTH 9 0
BBX 9 12 0 0
BITMAP
1E00
2100
2080
4000
4000
C000
C000
8000
8300
8200
C600
7800
ENDCHAR

STARTCHAR char68
ENCODING 68
SWIDTH 50 0
DWIDTH 10 0
BBX 9 12 0 0
BITMAP
3E00
2100
2080
2080
4080
4080
4180
4100
C100
8200
8600
F800
ENDCHAR

STARTCHAR char69
ENCODING 69
SWIDTH 35 0
DWIDTH 7 0
BBX 8 12 0 0
BITMAP
3F
20
20
20
40
7E
40
40
40
80
80
FC
ENDCHAR

STARTCHAR char70
ENCODING 70
SWIDTH 35 0
DWIDTH 7 0
BBX 8 12 0 0
BITMAP
3F
20
20
20
60
7E
40
40
C0
80
80
80
ENDCHAR

STARTCHAR char71
ENCODING 71
SWIDTH 45 0
DWIDTH 9 0
BBX 8 12 0 0
BITMAP
1E
31
21
40
40
C0
8F
82
82
82
C6
7A
ENDCHAR

STARTCHAR char72
ENCODING 72
SWIDTH 50 0
DWIDTH 10 0
BBX 9 12 0 0
BITMAP
2080
2080
2080
2080
4180
7F00
4100
4100
C300
8200
8200
8200
ENDCHAR

STARTCHAR char73
ENCODING 73
SWIDTH 15 0
DWIDTH 3 0
BBX 4 12 0 0
BITMAP
30
20
20
20
20
40
40
40
40
C0
80
80
ENDCHAR

STARTCHAR char74
ENCODING 74
SWIDTH 35 0
DWIDTH 7 0
BBX 7 12 0 0
BITMAP
02
02
06
04
04
04
04
08
88
88
98
F0
ENDCHAR

STARTCHAR char75
ENCODING 75
SWIDTH 40 0
DWIDTH 8 0
BBX 9 12 0 0
BITMAP
3180
2300
2600
2800
5000
6800
6800
4800
C800
8400
8400
8400
ENDCHAR

STARTCHAR char76
ENCODING 76
SWIDTH 35 0
DWIDTH 7 0
BBX 6 12 0 0
BITMAP
20
20
20
20
60
40
40
40
40
80
80
F8
ENDCHAR

STARTCHAR char77
ENCODING 77
SWIDTH 9 0
DWIDTH 12 0
BBX 12 12 0 0
BITMAP
3030
3050
3060
30A0
50A0
4920
4960
4A40
8A40
8C40
8C40
8840
ENDCHAR

STARTCHAR char78
ENCODING 78
SWIDTH 50 0
DWIDTH 10 0
BBX 9 12 0 0
BITMAP
3080
3080
3080
2880
4980
4900
4900
4500
C500
8600
8600
8600
ENDCHAR

STARTCHAR char79
ENCODING 79
SWIDTH 45 0
DWIDTH 9 0
BBX 7 12 1 0
BITMAP
3C
42
42
82
82
82
82
82
84
84
88
70
ENDCHAR

STARTCHAR char80
ENCODING 80
SWIDTH 40 0
DWIDTH 8 0
BBX 8 12 0 0
BITMAP
3E
21
21
21
43
7E
40
40
C0
80
80
80
ENDCHAR

STARTCHAR char81
ENCODING 81
SWIDTH 45 0
DWIDTH 9 0
BBX 8 13 0 -1
BITMAP
1E
31
61
41
41
C1
81
81
82
8A
C4
7A
02
ENDCHAR

STARTCHAR char82
ENCODING 82
SWIDTH 45 0
DWIDTH 9 0
BBX 8 12 0 0
BITMAP
3E
21
21
21
42
7C
46
42
C2
82
82
82
ENDCHAR

STARTCHAR char83
ENCODING 83
SWIDTH 40 0
DWIDTH 8 0
BBX 8 12 0 0
BITMAP
1E
21
21
20
20
18
04
02
82
82
C4
78
ENDCHAR

STARTCHAR char84
ENCODING 84
SWIDTH 35 0
DWIDTH 7 0
BBX 7 12 1 0
BITMAP
FE
10
10
20
20
20
20
40
40
40
40
40
ENDCHAR

STARTCHAR char85
ENCODING 85
SWIDTH 45 0
DWIDTH 9 0
BBX 9 12 0 0
BITMAP
2080
2080
2080
6080
4100
4100
C100
C100
8200
8200
C600
7C00
ENDCHAR

STARTCHAR char86
ENCODING 86
SWIDTH 40 0
DWIDTH 8 0
BBX 8 12 1 0
BITMAP
C1
C2
C2
C4
44
48
48
50
50
60
60
40
ENDCHAR

STARTCHAR char87
ENCODING 87
SWIDTH 9 0
DWIDTH 12 0
BBX 11 12 1 0
BITMAP
8620
8E20
8E20
8E40
9240
9280
B280
A280
A300
E300
C200
C200
ENDCHAR

STARTCHAR char88
ENCODING 88
SWIDTH 40 0
DWIDTH 8 0
BBX 10 12 -1 0
BITMAP
2080
1180
1100
1200
0C00
0C00
1C00
1400
2400
6600
C200
8200
ENDCHAR

STARTCHAR char89
ENCODING 89
SWIDTH 35 0
DWIDTH 7 0
BBX 8 12 1 0
BITMAP
82
46
44
48
58
30
20
20
20
40
40
40
ENDCHAR

STARTCHAR char90
ENCODING 90
SWIDTH 35 0
DWIDTH 7 0
BBX 9 12 -1 0
BITMAP
3F80
0100
0200
0200
0400
0800
1800
1000
2000
4000
4000
FC00
ENDCHAR

STARTCHAR char91
ENCODING 91
SWIDTH 20 0
DWIDTH 4 0
BBX 6 16 -1 -3
BITMAP
0C
10
10
10
10
10
20
20
20
20
40
40
40
40
40
E0
ENDCHAR

STARTCHAR char92
ENCODING 92
SWIDTH 25 0
DWIDTH 5 0
BBX 5 13 0 0
BITMAP
80
80
40
40
40
60
20
20
30
10
10
18
08
ENDCHAR

STARTCHAR char93
ENCODING 93
SWIDTH 20 0
DWIDTH 4 0
BBX 6 16 -2 -3
BITMAP
1C
04
04
08
08
08
08
08
10
10
10
10
10
20
20
E0
ENDCHAR

STARTCHAR char94
ENCODING 94
SWIDTH 0 0
DWIDTH 0 0
BBX 5 3 -1 13
BITMAP
30
70
48
ENDCHAR

STARTCHAR char95
ENCODING 95
SWIDTH 4 0
DWIDTH 11 0
BBX 10 1 0 -2
BITMAP
FFC0
ENDCHAR

STARTCHAR char96
ENCODING 96
SWIDTH 0 0
DWIDTH 0 0
BBX 2 2 -1 10
BITMAP
C0
40
ENDCHAR

STARTCHAR char97
ENCODING 97
SWIDTH 35 0
DWIDTH 7 0
BBX 6 9 0 0
BITMAP
38
44
04
0C
78
C8
88
98
EC
ENDCHAR

STARTCHAR char98
ENCODING 98
SWIDTH 35 0
DWIDTH 7 0
BBX 7 12 -1 0
BITMAP
10
10
20
3C
22
22
22
42
42
42
44
B8
ENDCHAR

STARTCHAR char99
ENCODING 99
SWIDTH 35 0
DWIDTH 7 0
BBX 6 9 0 0
BITMAP
38
44
40
80
80
80
88
88
70
ENDCHAR

STARTCHAR char100
ENCODING 100
SWIDTH 35 0
DWIDTH 7 0
BBX 8 12 0 0
BITMAP
01
03
02
3A
46
46
84
84
84
8C
88
78
ENDCHAR

STARTCHAR char101
ENCODING 101
SWIDTH 35 0
DWIDTH 7 0
BBX 6 9 0 0
BITMAP
38
44
44
FC
80
80
88
88
70
ENDCHAR

STARTCHAR char102
ENCODING 102
SWIDTH 15 0
DWIDTH 3 0
BBX 6 12 0 0
BITMAP
1C
20
20
70
20
40
40
40
40
C0
80
80
ENDCHAR

STARTCHAR char103
ENCODING 103
SWIDTH 40 0
DWIDTH 8 0
BBX 7 12 0 -3
BITMAP
3A
46
44
84
84
84
8C
88
78
08
98
F0
ENDCHAR

STARTCHAR char104
ENCODING 104
SWIDTH 40 0
DWIDTH 8 0
BBX 7 12 0 0
BITMAP
20
20
20
3E
62
42
46
44
84
84
8C
88
ENDCHAR

STARTCHAR char105
ENCODING 105
SWIDTH 15 0
DWIDTH 3 0
BBX 3 12 0 0
BITMAP
20
20
00
20
40
40
40
40
C0
80
80
80
ENDCHAR

STARTCHAR char106
ENCODING 106
SWIDTH 15 0
DWIDTH 3 0
BBX 5 15 -2 -3
BITMAP
08
08
00
08
10
10
10
10
10
20
20
20
20
40
C0
ENDCHAR

STARTCHAR char107
ENCODING 107
SWIDTH 30 0
DWIDTH 6 0
BBX 7 12 0 0
BITMAP
20
20
20
24
48
50
60
50
90
90
88
88
ENDCHAR

STARTCHAR char108
ENCODING 108
SWIDTH 15 0
DWIDTH 3 0
BBX 3 12 0 0
BITMAP
20
20
20
20
60
40
40
40
40
80
80
80
ENDCHAR

STARTCHAR char109
ENCODING 109
SWIDTH 9 0
DWIDTH 12 0
BBX 11 9 0 0
BITMAP
3DE0
6620
4460
4460
4440
8440
8840
8880
8880
ENDCHAR

STARTCHAR char110
ENCODING 110
SWIDTH 40 0
DWIDTH 8 0
BBX 7 9 0 0
BITMAP
3E
62
46
46
44
84
84
8C
88
ENDCHAR

STARTCHAR char111
ENCODING 111
SWIDTH 35 0
DWIDTH 7 0
BBX 6 9 0 0
BITMAP
38
44
44
84
84
84
84
88
70
ENDCHAR

STARTCHAR char112
ENCODING 112
SWIDTH 40 0
DWIDTH 8 0
BBX 8 12 -1 -3
BITMAP
1F
31
21
21
21
43
42
66
7C
C0
80
80
ENDCHAR

STARTCHAR char113
ENCODING 113
SWIDTH 35 0
DWIDTH 7 0
BBX 7 12 0 -3
BITMAP
3A
46
46
84
84
84
84
88
78
08
08
08
ENDCHAR

STARTCHAR char114
ENCODING 114
SWIDTH 25 0
DWIDTH 5 0
BBX 5 9 0 0
BITMAP
38
60
40
40
40
C0
80
80
80
ENDCHAR

STARTCHAR char115
ENCODING 115
SWIDTH 30 0
DWIDTH 6 0
BBX 6 9 0 0
BITMAP
38
44
40
40
30
08
08
88
70
ENDCHAR

STARTCHAR char116
ENCODING 116
SWIDTH 20 0
DWIDTH 4 0
BBX 4 12 0 0
BITMAP
20
20
20
70
20
40
40
40
C0
C0
80
E0
ENDCHAR

STARTCHAR char117
ENCODING 117
SWIDTH 40 0
DWIDTH 8 0
BBX 7 9 0 0
BITMAP
22
42
46
44
44
84
84
88
F8
ENDCHAR

STARTCHAR char118
ENCODING 118
SWIDTH 30 0
DWIDTH 6 0
BBX 5 9 1 0
BITMAP
88
88
90
90
A0
A0
C0
C0
80
ENDCHAR

STARTCHAR char119
ENCODING 119
SWIDTH 45 0
DWIDTH 9 0
BBX 9 9 0 0
BITMAP
8880
8880
9900
9900
AB00
AA00
EE00
CC00
CC00
ENDCHAR

STARTCHAR char120
ENCODING 120
SWIDTH 30 0
DWIDTH 6 0
BBX 7 9 -1 0
BITMAP
22
26
2C
18
10
30
68
C8
88
ENDCHAR

STARTCHAR char121
ENCODING 121
SWIDTH 30 0
DWIDTH 6 0
BBX 8 12 -2 -3
BITMAP
11
11
12
12
14
14
18
18
10
10
20
E0
ENDCHAR

STARTCHAR char122
ENCODING 122
SWIDTH 30 0
DWIDTH 6 0
BBX 7 9 -1 0
BITMAP
3E
04
04
08
10
20
60
40
F8
ENDCHAR

STARTCHAR char123
ENCODING 123
SWIDTH 30 0
DWIDTH 6 0
BBX 4 15 1 -3
BITMAP
70
60
60
60
40
40
40
80
40
40
60
40
40
40
30
ENDCHAR

STARTCHAR char124
ENCODING 124
SWIDTH 25 0
DWIDTH 5 0
BBX 1 13 2 0
BITMAP
80
80
80
80
80
80
80
80
80
80
80
80
80
ENDCHAR

STARTCHAR char125
ENCODING 125
SWIDTH 30 0
DWIDTH 6 0
BBX 4 15 1 -3
BITMAP
C0
20
20
20
20
20
20
10
20
20
60
20
20
20
C0
ENDCHAR

STARTCHAR char126
ENCODING 126
SWIDTH 0 0
DWIDTH 0 0
BBX 5 1 -1 14
BITMAP
78
ENDCHAR

STARTCHAR char128
ENCODING 128
SWIDTH 45 0
DWIDTH 9 0
BBX 10 12 -1 0
BITMAP
0F00
1080
1040
2000
7F00
FF00
6000
4000
4180
4100
6300
3C00
ENDCHAR

STARTCHAR char130
ENCODING 130
SWIDTH 15 0
DWIDTH 3 0
BBX 2 3 -1 -2
BITMAP
40
40
80
ENDCHAR

STARTCHAR char131
ENCODING 131
SWIDTH 0 0
DWIDTH 0 0
BBX 5 3 -1 13
BITMAP
30
70
48
ENDCHAR

STARTCHAR char132
ENCODING 132
SWIDTH 25 0
DWIDTH 5 0
BBX 4 3 -1 -2
BITMAP
50
50
90
ENDCHAR

STARTCHAR char133
ENCODING 133
SWIDTH 44 0
DWIDTH 19 0
BBX 12 2 3 0
BITMAP
8410
8410
ENDCHAR

STARTCHAR char134
ENCODING 134
SWIDTH 35 0
DWIDTH 7 0
BBX 6 15 1 -2
BITMAP
10
10
10
10
FC
20
20
20
20
40
40
40
40
40
80
ENDCHAR

STARTCHAR char135
ENCODING 135
SWIDTH 39 0
DWIDTH 18 0
BBX 0 0 0 0
BITMAP
ENDCHAR

STARTCHAR char136
ENCODING 136
SWIDTH 0 0
DWIDTH 0 0
BBX 4 2 -1 10
BITMAP
70
90
ENDCHAR

STARTCHAR char137
ENCODING 137
SWIDTH 39 0
DWIDTH 18 0
BBX 0 0 0 0
BITMAP
ENDCHAR

STARTCHAR char139
ENCODING 139
SWIDTH 30 0
DWIDTH 6 0
BBX 2 6 2 2
BITMAP
40
40
80
80
C0
40
ENDCHAR

STARTCHAR char140
ENCODING 140
SWIDTH 14 0
DWIDTH 13 0
BBX 12 12 0 0
BITMAP
1E80
2180
2100
4100
4100
C1F0
8200
8200
8200
8600
C600
7FE0
ENDCHAR

STARTCHAR char142
ENCODING 142
SWIDTH 39 0
DWIDTH 18 0
BBX 0 0 0 0
BITMAP
ENDCHAR

STARTCHAR char144
ENCODING 144
SWIDTH 39 0
DWIDTH 18 0
BBX 0 0 0 0
BITMAP
ENDCHAR

STARTCHAR char145
ENCODING 145
SWIDTH 15 0
DWIDTH 3 0
BBX 3 3 1 9
BITMAP
60
40
40
ENDCHAR

STARTCHAR char146
ENCODING 146
SWIDTH 15 0
DWIDTH 3 0
BBX 2 3 1 9
BITMAP
40
40
40
ENDCHAR

STARTCHAR char147
ENCODING 147
SWIDTH 25 0
DWIDTH 5 0
BBX 5 3 1 9
BITMAP
78
50
D0
ENDCHAR

STARTCHAR char148
ENCODING 148
SWIDTH 25 0
DWIDTH 5 0
BBX 5 3 1 9
BITMAP
50
50
50
ENDCHAR

STARTCHAR char149
ENCODING 149
SWIDTH 30 0
DWIDTH 6 0
BBX 5 5 0 4
BITMAP
70
F8
F8
F8
70
ENDCHAR

STARTCHAR char150
ENCODING 150
SWIDTH 40 0
DWIDTH 8 0
BBX 7 1 0 5
BITMAP
7E
ENDCHAR

STARTCHAR char151
ENCODING 151
SWIDTH 45 0
DWIDTH 9 0
BBX 9 1 0 5
BITMAP
FF80
ENDCHAR

STARTCHAR char152
ENCODING 152
SWIDTH 0 0
DWIDTH 0 0
BBX 6 1 -2 11
BITMAP
78
ENDCHAR

STARTCHAR char153
ENCODING 153
SWIDTH 29 0
DWIDTH 16 0
BBX 14 6 0 5
BITMAP
FD08
A198
2198
2158
2168
732C
ENDCHAR

STARTCHAR char154
ENCODING 154
SWIDTH 39 0
DWIDTH 18 0
BBX 0 0 0 0
BITMAP
ENDCHAR

STARTCHAR char155
ENCODING 155
SWIDTH 30 0
DWIDTH 6 0
BBX 2 6 2 2
BITMAP
80
80
40
40
C0
80
ENDCHAR

STARTCHAR char156
ENCODING 156
SWIDTH 9 0
DWIDTH 12 0
BBX 11 9 0 0
BITMAP
3DC0
4620
4420
87E0
8400
8400
8C40
8C40
7380
ENDCHAR

STARTCHAR char159
ENCODING 159
SWIDTH 35 0
DWIDTH 7 0
BBX 8 15 1 0
BITMAP
14
00
03
82
44
44
48
50
30
20
20
20
40
40
40
ENDCHAR

STARTCHAR char160
ENCODING 160
SWIDTH 35 0
DWIDTH 7 0
BBX 0 0 0 0
BITMAP
ENDCHAR

STARTCHAR char161
ENCODING 161
SWIDTH 15 0
DWIDTH 3 0
BBX 4 12 0 0
BITMAP
10
00
00
20
20
20
40
40
40
40
C0
40
ENDCHAR

STARTCHAR char162
ENCODING 162
SWIDTH 35 0
DWIDTH 7 0
BBX 6 12 0 -2
BITMAP
08
3C
54
50
90
90
A0
A8
A8
70
40
40
ENDCHAR

STARTCHAR char163
ENCODING 163
SWIDTH 40 0
DWIDTH 8 0
BBX 8 12 0 0
BITMAP
1E
21
21
20
20
60
20
20
20
20
40
FC
ENDCHAR

STARTCHAR char164
ENCODING 164
SWIDTH 0 0
DWIDTH 0 0
BBX 3 3 1 13
BITMAP
20
40
80
ENDCHAR

STARTCHAR char165
ENCODING 165
SWIDTH 0 0
DWIDTH 0 0
BBX 4 3 0 13
BITMAP
90
A0
40
ENDCHAR

STARTCHAR char166
ENCODING 166
SWIDTH 39 0
DWIDTH 18 0
BBX 0 0 0 0
BITMAP
ENDCHAR

STARTCHAR char167
ENCODING 167
SWIDTH 40 0
DWIDTH 8 0
BBX 7 15 0 -3
BITMAP
1C
22
20
10
68
8C
84
44
24
1C
10
08
88
88
70
ENDCHAR

STARTCHAR char168
ENCODING 168
SWIDTH 0 0
DWIDTH 0 0
BBX 4 1 -1 11
BITMAP
90
ENDCHAR

STARTCHAR char169
ENCODING 169
SWIDTH 19 0
DWIDTH 14 0
BBX 13 12 0 0
BITMAP
0700
18C0
2020
4790
8888
9008
9008
9008
48D0
4710
3060
0F80
ENDCHAR

STARTCHAR char170
ENCODING 170
SWIDTH 0 0
DWIDTH 0 0
BBX 4 1 0 14
BITMAP
90
ENDCHAR

STARTCHAR char171
ENCODING 171
SWIDTH 35 0
DWIDTH 7 0
BBX 7 5 0 3
BITMAP
22
6C
48
48
24
ENDCHAR

STARTCHAR char172
ENCODING 172
SWIDTH 14 0
DWIDTH 13 0
BBX 11 5 0 0
BITMAP
FFE0
0020
0020
0020
0020
ENDCHAR

STARTCHAR char173
ENCODING 173
SWIDTH 39 0
DWIDTH 18 0
BBX 0 0 0 0
BITMAP
ENDCHAR

STARTCHAR char174
ENCODING 174
SWIDTH 19 0
DWIDTH 14 0
BBX 12 12 0 0
BITMAP
0700
18C0
2020
4F90
4890
8990
8E10
8B10
4990
4CD0
3060
0F80
ENDCHAR

STARTCHAR char175
ENCODING 175
SWIDTH 39 0
DWIDTH 18 0
BBX 0 0 0 0
BITMAP
ENDCHAR

STARTCHAR char176
ENCODING 176
SWIDTH 35 0
DWIDTH 7 0
BBX 5 6 1 6
BITMAP
60
98
88
88
90
60
ENDCHAR

STARTCHAR char177
ENCODING 177
SWIDTH 50 0
DWIDTH 10 0
BBX 9 11 0 0
BITMAP
0800
0800
0800
0800
FF80
0800
0800
0800
0800
0000
FF80
ENDCHAR

STARTCHAR char178
ENCODING 178
SWIDTH 39 0
DWIDTH 18 0
BBX 0 0 0 0
BITMAP
ENDCHAR

STARTCHAR char179
ENCODING 179
SWIDTH 39 0
DWIDTH 18 0
BBX 0 0 0 0
BITMAP
ENDCHAR

STARTCHAR char180
ENCODING 180
SWIDTH 0 0
DWIDTH 0 0
BBX 4 2 0 10
BITMAP
20
40
ENDCHAR

STARTCHAR char181
ENCODING 181
SWIDTH 39 0
DWIDTH 18 0
BBX 0 0 0 0
BITMAP
ENDCHAR

STARTCHAR char182
ENCODING 182
SWIDTH 14 0
DWIDTH 13 0
BBX 8 15 2 -3
BITMAP
7F
E2
E2
E2
E2
62
22
22
22
22
22
22
22
22
22
ENDCHAR

STARTCHAR char183
ENCODING 183
SWIDTH 15 0
DWIDTH 3 0
BBX 1 2 1 4
BITMAP
80
80
ENDCHAR

STARTCHAR char184
ENCODING 184
SWIDTH 0 0
DWIDTH 0 0
BBX 2 3 -2 -4
BITMAP
80
80
80
ENDCHAR

STARTCHAR char186
ENCODING 186
SWIDTH 0 0
DWIDTH 0 0
BBX 5 1 -1 14
BITMAP
78
ENDCHAR

STARTCHAR char187
ENCODING 187
SWIDTH 35 0
DWIDTH 7 0
BBX 6 5 0 3
BITMAP
48
48
24
6C
90
ENDCHAR

STARTCHAR char188
ENCODING 188
SWIDTH 39 0
DWIDTH 18 0
BBX 0 0 0 0
BITMAP
ENDCHAR

STARTCHAR char191
ENCODING 191
SWIDTH 35 0
DWIDTH 7 0
BBX 5 12 0 0
BITMAP
08
00
00
10
10
20
40
40
80
88
88
70
ENDCHAR

STARTCHAR char192
ENCODING 192
SWIDTH 40 0
DWIDTH 8 0
BBX 8 16 -2 0
BITMAP
04
02
02
00
02
05
05
05
09
09
11
1F
21
61
41
41
ENDCHAR

STARTCHAR char193
ENCODING 193
SWIDTH 40 0
DWIDTH 8 0
BBX 10 16 -2 0
BITMAP
00C0
0180
0100
0000
0200
0500
0500
0500
0900
0900
1100
1F00
2100
6100
4100
4100
ENDCHAR

STARTCHAR char194
ENCODING 194
SWIDTH 40 0
DWIDTH 8 0
BBX 8 16 -1 0
BITMAP
02
06
09
00
04
0A
0A
0A
12
12
22
3E
42
C2
82
82
ENDCHAR

STARTCHAR char195
ENCODING 195
SWIDTH 40 0
DWIDTH 8 0
BBX 10 15 -2 0
BITMAP
07C0
0000
0000
0200
0500
0500
0500
0900
0900
1100
1F00
2100
6100
4100
4100
ENDCHAR

STARTCHAR char196
ENCODING 196
SWIDTH 40 0
DWIDTH 8 0
BBX 8 15 -1 0
BITMAP
05
00
00
04
0A
0A
0A
12
12
22
3E
42
C2
82
82
ENDCHAR

STARTCHAR char197
ENCODING 197
SWIDTH 40 0
DWIDTH 8 0
BBX 8 16 -1 0
BITMAP
06
05
06
00
04
0A
0A
0A
12
12
22
3E
42
C2
82
82
ENDCHAR

STARTCHAR char198
ENCODING 198
SWIDTH 14 0
DWIDTH 13 0
BBX 13 12 0 0
BITMAP
03F8
0280
0500
0500
0900
11F0
1200
3E00
2200
4200
8200
87E0
ENDCHAR

STARTCHAR char199
ENCODING 199
SWIDTH 45 0
DWIDTH 9 0
BBX 9 16 0 -4
BITMAP
1E00
2100
2080
4000
4000
C000
C000
8000
8300
8200
C600
7800
0000
2000
2000
2000
ENDCHAR

STARTCHAR char200
ENCODING 200
SWIDTH 35 0
DWIDTH 7 0
BBX 8 16 0 0
BITMAP
10
08
08
00
3F
20
20
20
40
7E
40
40
40
80
80
FC
ENDCHAR

STARTCHAR char201
ENCODING 201
SWIDTH 35 0
DWIDTH 7 0
BBX 8 16 0 0
BITMAP
03
06
04
00
3F
20
20
20
40
7E
40
40
40
80
80
FC
ENDCHAR

STARTCHAR char202
ENCODING 202
SWIDTH 35 0
DWIDTH 7 0
BBX 8 16 0 0
BITMAP
04
0A
12
00
3F
20
20
20
40
7E
40
40
40
80
80
FC
ENDCHAR

STARTCHAR char203
ENCODING 203
SWIDTH 35 0
DWIDTH 7 0
BBX 8 15 0 0
BITMAP
0A
00
00
3F
20
20
20
40
7E
40
40
40
80
80
FC
ENDCHAR

STARTCHAR char204
ENCODING 204
SWIDTH 15 0
DWIDTH 3 0
BBX 4 16 0 0
BITMAP
60
20
10
00
20
20
20
20
60
40
40
40
40
C0
80
80
ENDCHAR

STARTCHAR char205
ENCODING 205
SWIDTH 15 0
DWIDTH 3 0
BBX 6 16 0 0
BITMAP
0C
08
10
00
20
20
20
20
60
40
40
40
40
C0
80
80
ENDCHAR

STARTCHAR char206
ENCODING 206
SWIDTH 15 0
DWIDTH 3 0
BBX 5 16 0 0
BITMAP
10
28
48
00
20
20
20
20
60
40
40
40
40
C0
80
80
ENDCHAR

STARTCHAR char207
ENCODING 207
SWIDTH 15 0
DWIDTH 3 0
BBX 5 15 0 0
BITMAP
28
00
00
20
20
20
20
60
40
40
40
40
C0
80
80
ENDCHAR

STARTCHAR char208
ENCODING 208
SWIDTH 39 0
DWIDTH 18 0
BBX 0 0 0 0
BITMAP
ENDCHAR

STARTCHAR char209
ENCODING 209
SWIDTH 50 0
DWIDTH 10 0
BBX 9 15 0 0
BITMAP
0F00
0000
3080
3080
3080
3080
2880
4900
4900
4900
4500
C500
8600
8600
8600
ENDCHAR

STARTCHAR char210
ENCODING 210
SWIDTH 45 0
DWIDTH 9 0
BBX 7 16 1 0
BITMAP
10
08
08
00
3C
42
42
82
82
82
82
82
84
84
88
70
ENDCHAR

STARTCHAR char211
ENCODING 211
SWIDTH 45 0
DWIDTH 9 0
BBX 8 16 1 0
BITMAP
03
04
08
00
3C
42
42
82
82
82
82
82
84
84
88
70
ENDCHAR

STARTCHAR char212
ENCODING 212
SWIDTH 45 0
DWIDTH 9 0
BBX 7 16 1 0
BITMAP
0C
0C
14
00
3C
42
42
82
82
82
82
82
84
84
88
70
ENDCHAR

STARTCHAR char213
ENCODING 213
SWIDTH 45 0
DWIDTH 9 0
BBX 8 15 0 0
BITMAP
0F
00
00
1E
21
21
41
41
41
81
81
82
82
C4
38
ENDCHAR

STARTCHAR char214
ENCODING 214
SWIDTH 45 0
DWIDTH 9 0
BBX 7 15 1 0
BITMAP
0A
00
00
3C
42
42
82
82
82
82
82
84
84
88
70
ENDCHAR

STARTCHAR char215
ENCODING 215
SWIDTH 39 0
DWIDTH 18 0
BBX 0 0 0 0
BITMAP
ENDCHAR

STARTCHAR char216
ENCODING 216
SWIDTH 45 0
DWIDTH 9 0
BBX 9 14 0 -1
BITMAP
0080
1F00
2100
2300
4300
4500
4900
C900
9100
A200
A200
C400
F800
8000
ENDCHAR

STARTCHAR char217
ENCODING 217
SWIDTH 45 0
DWIDTH 9 0
BBX 9 16 0 0
BITMAP
0800
0400
0400
2080
2080
2080
2080
4100
4100
4100
C100
C100
8200
8200
C600
7C00
ENDCHAR

STARTCHAR char218
ENCODING 218
SWIDTH 45 0
DWIDTH 9 0
BBX 9 16 0 0
BITMAP
0180
0200
0400
2080
2080
2080
2080
4100
4100
4100
C100
C100
8200
8200
C600
7C00
ENDCHAR

STARTCHAR char219
ENCODING 219
SWIDTH 45 0
DWIDTH 9 0
BBX 9 16 0 0
BITMAP
0600
0600
0900
2080
2080
2080
2080
4100
4100
4100
C100
C100
8200
8200
C600
7C00
ENDCHAR

STARTCHAR char220
ENCODING 220
SWIDTH 45 0
DWIDTH 9 0
BBX 9 15 0 0
BITMAP
0500
0000
2080
2080
2080
6080
4100
4100
4100
C100
C100
8200
8200
C600
7C00
ENDCHAR

STARTCHAR char221
ENCODING 221
SWIDTH 39 0
DWIDTH 18 0
BBX 0 0 0 0
BITMAP
ENDCHAR

STARTCHAR char223
ENCODING 223
SWIDTH 40 0
DWIDTH 8 0
BBX 7 12 0 0
BITMAP
1C
22
22
22
44
48
44
44
84
84
8C
B8
ENDCHAR

STARTCHAR char224
ENCODING 224
SWIDTH 35 0
DWIDTH 7 0
BBX 6 13 0 0
BITMAP
20
10
10
00
38
44
04
0C
78
C8
88
98
EC
ENDCHAR

STARTCHAR char225
ENCODING 225
SWIDTH 35 0
DWIDTH 7 0
BBX 7 12 0 0
BITMAP
04
08
00
38
44
04
0C
78
C8
88
98
EC
ENDCHAR

STARTCHAR char226
ENCODING 226
SWIDTH 35 0
DWIDTH 7 0
BBX 6 13 0 0
BITMAP
08
14
24
00
38
44
04
0C
78
C8
88
98
EC
ENDCHAR

STARTCHAR char227
ENCODING 227
SWIDTH 35 0
DWIDTH 7 0
BBX 7 12 0 0
BITMAP
3E
00
00
38
44
04
0C
78
C8
88
98
EC
ENDCHAR

STARTCHAR char228
ENCODING 228
SWIDTH 35 0
DWIDTH 7 0
BBX 6 12 0 0
BITMAP
24
00
00
38
44
04
0C
78
88
88
98
68
ENDCHAR

STARTCHAR char229
ENCODING 229
SWIDTH 35 0
DWIDTH 7 0
BBX 6 13 0 0
BITMAP
38
24
38
00
38
44
04
0C
78
88
88
98
E8
ENDCHAR

STARTCHAR char230
ENCODING 230
SWIDTH 4 0
DWIDTH 11 0
BBX 10 9 0 0
BITMAP
3B80
4440
0440
1FC0
7800
8800
8880
9880
6700
ENDCHAR

STARTCHAR char231
ENCODING 231
SWIDTH 35 0
DWIDTH 7 0
BBX 6 13 0 -4
BITMAP
38
44
40
80
80
80
88
88
70
00
40
40
40
ENDCHAR

STARTCHAR char232
ENCODING 232
SWIDTH 35 0
DWIDTH 7 0
BBX 6 13 0 0
BITMAP
20
10
10
00
38
44
44
FC
80
80
88
88
70
ENDCHAR

STARTCHAR char233
ENCODING 233
SWIDTH 35 0
DWIDTH 7 0
BBX 7 12 0 0
BITMAP
04
08
00
38
44
44
FC
80
80
88
88
70
ENDCHAR

STARTCHAR char234
ENCODING 234
SWIDTH 35 0
DWIDTH 7 0
BBX 6 13 0 0
BITMAP
08
14
24
00
38
44
44
FC
80
80
88
88
70
ENDCHAR

STARTCHAR char235
ENCODING 235
SWIDTH 35 0
DWIDTH 7 0
BBX 6 12 0 0
BITMAP
34
00
00
38
44
44
FC
80
80
88
88
70
ENDCHAR

STARTCHAR char236
ENCODING 236
SWIDTH 15 0
DWIDTH 3 0
BBX 3 12 0 0
BITMAP
40
20
00
20
40
40
40
40
C0
80
80
80
ENDCHAR

STARTCHAR char237
ENCODING 237
SWIDTH 15 0
DWIDTH 3 0
BBX 5 12 0 0
BITMAP
10
20
00
20
40
40
40
40
C0
80
80
80
ENDCHAR

STARTCHAR char238
ENCODING 238
SWIDTH 15 0
DWIDTH 3 0
BBX 5 12 0 0
BITMAP
70
90
00
20
40
40
40
40
C0
80
80
80
ENDCHAR

STARTCHAR char239
ENCODING 239
SWIDTH 15 0
DWIDTH 3 0
BBX 5 12 0 0
BITMAP
58
00
00
20
40
40
40
40
C0
80
80
80
ENDCHAR

STARTCHAR char241
ENCODING 241
SWIDTH 40 0
DWIDTH 8 0
BBX 7 12 0 0
BITMAP
3E
00
00
3E
62
46
46
44
84
84
8C
88
ENDCHAR

STARTCHAR char242
ENCODING 242
SWIDTH 35 0
DWIDTH 7 0
BBX 6 13 0 0
BITMAP
20
10
08
00
38
44
44
84
84
84
84
88
70
ENDCHAR

STARTCHAR char243
ENCODING 243
SWIDTH 35 0
DWIDTH 7 0
BBX 7 12 0 0
BITMAP
04
08
00
38
44
44
84
84
84
84
88
70
ENDCHAR

STARTCHAR char244
ENCODING 244
SWIDTH 35 0
DWIDTH 7 0
BBX 7 13 0 0
BITMAP
08
14
24
00
38
44
44
84
84
84
84
88
70
ENDCHAR

STARTCHAR char245
ENCODING 245
SWIDTH 35 0
DWIDTH 7 0
BBX 7 12 0 0
BITMAP
3E
00
00
38
44
44
84
84
84
84
88
70
ENDCHAR

STARTCHAR char246
ENCODING 246
SWIDTH 35 0
DWIDTH 7 0
BBX 7 12 0 0
BITMAP
16
00
00
38
44
44
84
84
84
84
88
70
ENDCHAR

STARTCHAR char247
ENCODING 247
SWIDTH 50 0
DWIDTH 10 0
BBX 9 7 0 1
BITMAP
0800
0800
0000
FF80
0000
0800
0800
ENDCHAR

STARTCHAR char248
ENCODING 248
SWIDTH 35 0
DWIDTH 7 0
BBX 8 11 -1 -1
BITMAP
01
1E
22
26
4A
4A
52
62
44
78
40
ENDCHAR

STARTCHAR char249
ENCODING 249
SWIDTH 40 0
DWIDTH 8 0
BBX 7 12 0 0
BITMAP
10
08
00
42
42
44
44
44
84
84
88
F8
ENDCHAR

STARTCHAR char250
ENCODING 250
SWIDTH 40 0
DWIDTH 8 0
BBX 7 12 0 0
BITMAP
04
08
00
42
42
44
44
44
84
84
88
F8
ENDCHAR

STARTCHAR char251
ENCODING 251
SWIDTH 40 0
DWIDTH 8 0
BBX 7 12 0 0
BITMAP
1C
22
00
42
42
44
44
44
84
84
88
F8
ENDCHAR

STARTCHAR char252
ENCODING 252
SWIDTH 40 0
DWIDTH 8 0
BBX 7 12 0 0
BITMAP
12
00
00
42
42
44
44
44
84
84
88
F8
ENDCHAR

STARTCHAR char255
ENCODING 255
SWIDTH 30 0
DWIDTH 6 0
BBX 8 15 -2 -3
BITMAP
09
00
00
11
11
12
12
14
14
18
18
10
10
20
E0
ENDCHAR
ENDFONT
